# https://github.com/mikedh/trimesh
v -1.4045267578 0.2871093750 -0.2409039063
v -0.2934832031 0.9980468750 0.7094204687
v -0.2620385742 -0.5136718750 -2.4622040625
v -1.2822420898 0.3105468750 -3.0985226562
v -1.4150083008 1.8867187500 0.1329125000
v -0.5083548340 2.3593750000 3.8478168750
v 1.2473036133 3.7011718750 3.4839689062
v 0.4821509766 0.5156250000 -3.8444940625
v -5.0416221680 -1.7226562500 -9.5996053125
v -8.6542606445 0.2187500000 -5.8631026562
v 0.9660488770 3.1738281250 3.5221812500
v -2.1050432129 5.8359375000 6.0059835937
vn -0.6455240286 -0.7001878586 0.3050175260
vn 0.4332453763 -0.8174849648 0.3794954233
vn 0.1899075337 -0.9770057604 -0.0969271515
vn -0.2851156925 -0.9531634817 0.1009376986
vn -0.5755079223 -0.7840895748 0.2323664565
vn -0.2764719323 -0.0603293722 0.9591264971
vn 0.9090816947 0.3663566985 0.1983765152
vn 0.7403103011 -0.0238693142 -0.6718414351
vn -0.1441283927 -0.3917449700 -0.9087149635
vn -0.9567205445 -0.0603328672 -0.2846853435
vn 0.5443817610 -0.6052953833 0.5807460695
vn -0.2553360808 0.5365170370 0.8043338578
f 1//1 3//3 2//2
f 2//2 6//6 1//1
f 1//1 4//4 3//3
f 1//1 5//5 4//4
f 1//1 6//6 5//5
f 3//3 7//7 2//2
f 2//2 11//11 6//6
f 2//2 7//7 11//11
f 4//4 8//8 3//3
f 3//3 8//8 7//7
f 5//5 9//9 4//4
f 4//4 9//9 8//8
f 6//6 10//10 5//5
f 5//5 10//10 9//9
f 11//11 10//10 6//6
f 7//7 12//12 11//11
f 8//8 12//12 7//7
f 9//9 12//12 8//8
f 10//10 12//12 9//9
f 11//11 12//12 10//10