# https://github.com/mikedh/trimesh
v 512 0 512
v 926 283 828
v 354 283 1024
v 0 283 512
v 354 283 0
v 926 283 196
v 670 741 1024
v 98 741 828
v 98 741 196
v 670 741 0
v 1024 741 512
v 512 1024 512
vn -0 1 -0
vn -1 0 -1
vn 0 0 -1
vn 1 0 -0
vn 0 0 1
vn -1 0 1
vn -0 -0 -1
vn 1 -0 -1
vn 1 -0 1
vn -0 -0 1
vn -1 -0 0
vn 0 -1 0
f 1//1 6//6 5//5
f 5//5 4//4 1//1
f 1//1 2//2 6//6
f 1//1 3//3 2//2
f 1//1 4//4 3//3
f 2//2 11//11 6//6
f 3//3 7//7 2//2
f 2//2 7//7 11//11
f 4//4 8//8 3//3
f 3//3 8//8 7//7
f 5//5 9//9 4//4
f 9//9 8//8 4//4
f 6//6 10//10 5//5
f 5//5 10//10 9//9
f 6//6 11//11 10//10
f 7//7 12//12 11//11
f 8//8 12//12 7//7
f 9//9 12//12 8//8
f 10//10 12//12 9//9
f 11//11 12//12 10//10